<svg width="40" height="40" viewBox="0 0 40 40" fill="none" xmlns="http://www.w3.org/2000/svg">
<g id="tabler-icon-copy">
<path id="Vector" d="M6.68667 27.895C6.17557 27.6036 5.75045 27.1825 5.45429 26.6742C5.15813 26.1658 5.00142 25.5883 5 25V8.33333C5 6.5 6.5 5 8.33333 5H25C26.25 5 26.93 5.64167 27.5 6.66667M11.6667 16.1117C11.6667 14.9328 12.135 13.8022 12.9686 12.9686C13.8022 12.135 14.9328 11.6667 16.1117 11.6667H30.555C31.1387 11.6667 31.7167 11.7816 32.256 12.005C32.7953 12.2284 33.2853 12.5558 33.6981 12.9686C34.1108 13.3813 34.4383 13.8713 34.6616 14.4106C34.885 14.9499 35 15.5279 35 16.1117V30.555C35 31.1387 34.885 31.7167 34.6616 32.256C34.4383 32.7953 34.1108 33.2853 33.6981 33.6981C33.2853 34.1108 32.7953 34.4383 32.256 34.6616C31.7167 34.885 31.1387 35 30.555 35H16.1117C15.5279 35 14.9499 34.885 14.4106 34.6616C13.8713 34.4383 13.3813 34.1108 12.9686 33.6981C12.5558 33.2853 12.2284 32.7953 12.005 32.256C11.7816 31.7167 11.6667 31.1387 11.6667 30.555V16.1117Z" stroke="#F75D25" stroke-width="2" stroke-linecap="round" stroke-linejoin="round"/>
</g>
</svg>
