<svg width="40" height="40" viewBox="0 0 40 40" fill="none" xmlns="http://www.w3.org/2000/svg">
<g id="tabler-icon-focus-centered">
<path id="Vector" d="M6.66675 13.3327V9.99935C6.66675 9.11529 7.01794 8.26745 7.64306 7.64233C8.26818 7.0172 9.11603 6.66602 10.0001 6.66602H13.3334M6.66675 26.666V29.9993C6.66675 30.8834 7.01794 31.7312 7.64306 32.3564C8.26818 32.9815 9.11603 33.3327 10.0001 33.3327H13.3334M26.6667 6.66602H30.0001C30.8841 6.66602 31.732 7.0172 32.3571 7.64233C32.9822 8.26745 33.3334 9.11529 33.3334 9.99935V13.3327M26.6667 33.3327H30.0001C30.8841 33.3327 31.732 32.9815 32.3571 32.3564C32.9822 31.7312 33.3334 30.8834 33.3334 29.9993V26.666M18.3334 19.9993C18.3334 20.4414 18.509 20.8653 18.8216 21.1779C19.1341 21.4904 19.5581 21.666 20.0001 21.666C20.4421 21.666 20.866 21.4904 21.1786 21.1779C21.4912 20.8653 21.6667 20.4414 21.6667 19.9993C21.6667 19.5573 21.4912 19.1334 21.1786 18.8208C20.866 18.5083 20.4421 18.3327 20.0001 18.3327C19.5581 18.3327 19.1341 18.5083 18.8216 18.8208C18.509 19.1334 18.3334 19.5573 18.3334 19.9993Z" stroke="#F75D25" stroke-width="3" stroke-linecap="round" stroke-linejoin="round"/>
</g>
</svg>
