<svg width="40" height="40" viewBox="0 0 40 40" fill="none" xmlns="http://www.w3.org/2000/svg">
<g id="tabler-icon-notes">
<path id="Vector" d="M15 11.6667H25M15 18.3333H25M15 25H21.6667M8.33337 8.33333C8.33337 7.44928 8.68456 6.60143 9.30968 5.97631C9.93481 5.35119 10.7827 5 11.6667 5H28.3334C29.2174 5 30.0653 5.35119 30.6904 5.97631C31.3155 6.60143 31.6667 7.44928 31.6667 8.33333V31.6667C31.6667 32.5507 31.3155 33.3986 30.6904 34.0237C30.0653 34.6488 29.2174 35 28.3334 35H11.6667C10.7827 35 9.93481 34.6488 9.30968 34.0237C8.68456 33.3986 8.33337 32.5507 8.33337 31.6667V8.33333Z" stroke="#F75D25" stroke-width="2" stroke-linecap="round" stroke-linejoin="round"/>
</g>
</svg>
