<svg width="24" height="24" viewBox="0 0 24 24" fill="none" xmlns="http://www.w3.org/2000/svg">
<g id="tabler-icon-mood-plus">
<path id="Vector" d="M20.9855 12.5281C21.0926 10.7059 20.6431 8.89425 19.6966 7.33345C18.7502 5.77266 17.3515 4.53654 15.6863 3.78911C14.021 3.04169 12.1678 2.81828 10.3726 3.14855C8.57736 3.47882 6.92501 4.34714 5.63476 5.6383C4.34452 6.92947 3.47737 8.58243 3.14837 10.3779C2.81938 12.1733 3.0441 14.0263 3.79271 15.6911C4.54132 17.3559 5.77843 18.7536 7.33989 19.699C8.90136 20.6443 10.7134 21.0925 12.5355 20.9841M16 19H22M19 16V22M9 10H9.01M15 10H15.01M9.5 15C10.158 15.64 11.06 16 12 16C12.94 16 13.842 15.64 14.5 15" stroke="#008B91" stroke-width="2" stroke-linecap="round" stroke-linejoin="round"/>
</g>
</svg>
