<svg width="40" height="40" viewBox="0 0 40 40" fill="none" xmlns="http://www.w3.org/2000/svg">
<g id="tabler-icon-chart-dots-2">
<path id="Vector" d="M5 5V35H35M35 5L25 7.5M23.5221 11.084L28.1405 17.2423M26.6667 20.8333L18.3333 24.1667M11.6667 25C11.6667 25.8841 12.0179 26.7319 12.643 27.357C13.2681 27.9821 14.1159 28.3333 15 28.3333C15.8841 28.3333 16.7319 27.9821 17.357 27.357C17.9821 26.7319 18.3333 25.8841 18.3333 25C18.3333 24.1159 17.9821 23.2681 17.357 22.643C16.7319 22.0179 15.8841 21.6667 15 21.6667C14.1159 21.6667 13.2681 22.0179 12.643 22.643C12.0179 23.2681 11.6667 24.1159 11.6667 25ZM18.3333 8.33333C18.3333 9.21739 18.6845 10.0652 19.3096 10.6904C19.9348 11.3155 20.7826 11.6667 21.6667 11.6667C22.5507 11.6667 23.3986 11.3155 24.0237 10.6904C24.6488 10.0652 25 9.21739 25 8.33333C25 7.44928 24.6488 6.60143 24.0237 5.97631C23.3986 5.35119 22.5507 5 21.6667 5C20.7826 5 19.9348 5.35119 19.3096 5.97631C18.6845 6.60143 18.3333 7.44928 18.3333 8.33333ZM26.6667 20C26.6667 20.8841 27.0179 21.7319 27.643 22.357C28.2681 22.9821 29.1159 23.3333 30 23.3333C30.8841 23.3333 31.7319 22.9821 32.357 22.357C32.9821 21.7319 33.3333 20.8841 33.3333 20C33.3333 19.1159 32.9821 18.2681 32.357 17.643C31.7319 17.0179 30.8841 16.6667 30 16.6667C29.1159 16.6667 28.2681 17.0179 27.643 17.643C27.0179 18.2681 26.6667 19.1159 26.6667 20Z" stroke="#F75D25" stroke-width="2" stroke-linecap="round" stroke-linejoin="round"/>
</g>
</svg>
