<svg width="40" height="40" viewBox="0 0 40 40" fill="none" xmlns="http://www.w3.org/2000/svg">
<g id="tabler-icon-stars">
<g id="Vector">
<path d="M30.4412 32.8962L26.5317 34.9192C26.4157 34.9789 26.2852 35.0055 26.1548 34.9961C26.0243 34.9867 25.8991 34.9417 25.793 34.8661C25.687 34.7905 25.6043 34.6873 25.5542 34.568C25.5041 34.4486 25.4886 34.3179 25.5094 34.1904L26.2564 29.9044L23.0939 26.8698C22.9995 26.7797 22.9326 26.6652 22.901 26.5394C22.8693 26.4135 22.8742 26.2814 22.9149 26.1581C22.9556 26.0349 23.0306 25.9254 23.1313 25.8422C23.232 25.759 23.3544 25.7055 23.4845 25.6877L27.8547 25.0619L29.8094 21.1635C29.8679 21.0474 29.958 20.9497 30.0696 20.8814C30.1812 20.8131 30.3099 20.7769 30.4412 20.7769C30.5725 20.7769 30.7012 20.8131 30.8128 20.8814C30.9244 20.9497 31.0145 21.0474 31.073 21.1635L33.0277 25.0619L37.398 25.6877C37.5276 25.7061 37.6495 25.76 37.7498 25.8433C37.8501 25.9265 37.9247 26.0358 37.9654 26.1588C38.006 26.2818 38.011 26.4136 37.9797 26.5393C37.9485 26.6649 37.8823 26.7794 37.7886 26.8698L34.6261 29.9044L35.3712 34.1886C35.3936 34.3163 35.3793 34.4477 35.3298 34.5678C35.2804 34.6879 35.1978 34.7919 35.0915 34.868C34.9852 34.9441 34.8595 34.9893 34.7285 34.9983C34.5976 35.0074 34.4667 34.98 34.3507 34.9192L30.4412 32.8962Z" stroke="#F75D25" stroke-width="2" stroke-linecap="round" stroke-linejoin="round"/>
<path d="M9.56087 32.8962L5.65141 34.9192C5.53539 34.9789 5.40487 35.0055 5.27443 34.9961C5.14398 34.9867 5.01874 34.9417 4.9127 34.8661C4.80665 34.7905 4.72396 34.6873 4.67387 34.568C4.62378 34.4486 4.60826 34.3179 4.62904 34.1904L5.37602 29.9044L2.21352 26.8698C2.11913 26.7797 2.05229 26.6652 2.02065 26.5394C1.989 26.4135 1.99381 26.2814 2.03454 26.1581C2.07527 26.0349 2.15027 25.9254 2.25098 25.8422C2.3517 25.759 2.47406 25.7055 2.60411 25.6877L6.97436 25.0619L8.92909 21.1635C8.98755 21.0474 9.07766 20.9497 9.18927 20.8814C9.30088 20.8131 9.42958 20.7769 9.56087 20.7769C9.69217 20.7769 9.82086 20.8131 9.93248 20.8814C10.0441 20.9497 10.1342 21.0474 10.1927 21.1635L12.1474 25.0619L16.5176 25.6877C16.6473 25.7061 16.7692 25.76 16.8694 25.8433C16.9697 25.9265 17.0444 26.0358 17.085 26.1588C17.1257 26.2818 17.1306 26.4136 17.0994 26.5393C17.0682 26.6649 17.0019 26.7794 16.9082 26.8698L13.7457 29.9044L14.4909 34.1886C14.5133 34.3163 14.4989 34.4477 14.4495 34.5678C14.4 34.6879 14.3175 34.7919 14.2112 34.868C14.1049 34.9441 13.9791 34.9893 13.8482 34.9983C13.7172 35.0074 13.5863 34.98 13.4703 34.9192L9.56087 32.8962Z" stroke="#F75D25" stroke-width="2" stroke-linecap="round" stroke-linejoin="round"/>
<path d="M20.0019 15.1193L16.0925 17.1423C15.9764 17.202 15.8459 17.2286 15.7155 17.2192C15.585 17.2098 15.4598 17.1648 15.3537 17.0892C15.2477 17.0136 15.165 16.9104 15.1149 16.7911C15.0648 16.6717 15.0493 16.541 15.0701 16.4135L15.8171 12.1275L12.6546 9.09296C12.5602 9.00284 12.4933 8.88832 12.4617 8.76247C12.43 8.63663 12.4349 8.50453 12.4756 8.38126C12.5163 8.25799 12.5913 8.14851 12.692 8.06532C12.7927 7.98214 12.9151 7.92859 13.0452 7.9108L17.4154 7.28505L19.3701 3.38658C19.4286 3.27047 19.5187 3.17277 19.6303 3.10448C19.7419 3.03618 19.8706 3 20.0019 3C20.1332 3 20.2619 3.03618 20.3735 3.10448C20.4851 3.17277 20.5752 3.27047 20.6337 3.38658L22.5884 7.28505L26.9587 7.9108C27.0884 7.92922 27.2102 7.98311 27.3105 8.06638C27.4108 8.14964 27.4854 8.25896 27.5261 8.38196C27.5667 8.50496 27.5717 8.63674 27.5404 8.76239C27.5092 8.88804 27.443 9.00255 27.3493 9.09296L24.1868 12.1275L24.932 16.4117C24.9543 16.5395 24.94 16.6709 24.8905 16.791C24.8411 16.9111 24.7585 17.0151 24.6522 17.0912C24.5459 17.1672 24.4202 17.2124 24.2892 17.2214C24.1583 17.2305 24.0274 17.2031 23.9114 17.1423L20.0019 15.1193Z" stroke="#F75D25" stroke-width="2" stroke-linecap="round" stroke-linejoin="round"/>
</g>
</g>
</svg>
